<?xml version="1.0" standalone="no"?>
<!DOCTYPE svg PUBLIC "-//W3C//DTD SVG 20010904//EN" "http://www.w3.org/TR/2001/REC-SVG-20010904/DTD/svg10.dtd">
<!-- Created using Krita: https://krita.org -->
<svg xmlns="http://www.w3.org/2000/svg" 
    xmlns:xlink="http://www.w3.org/1999/xlink"
    xmlns:krita="http://krita.org/namespaces/svg/krita"
    xmlns:sodipodi="http://sodipodi.sourceforge.net/DTD/sodipodi-0.dtd"
    width="345.6pt"
    height="345.6pt"
    viewBox="0 0 345.6 345.6">
<defs/>
<path id="shape0" transform="matrix(1.85379314779178 0 0 1.85379314779178 16.7186326414443 59.198337820917)" fill="#aea285" fill-rule="evenodd" stroke="#aea285" stroke-width="2.4" stroke-linecap="square" stroke-linejoin="bevel" d="M129.96 0C70.465 19.8808 30.7934 56.2811 0 100.08C15.84 41.52 59.16 8.16 129.96 0Z" sodipodi:nodetypes="ccc"/><path id="shape01" transform="matrix(1.73770611523448 0.645698452744364 -0.645698452744364 1.73770611523448 83.38358148521 66.3446375242065)" fill="#aea285" fill-rule="evenodd" stroke="#aea285" stroke-width="2.4" stroke-linecap="square" stroke-linejoin="bevel" d="M129.96 0C70.465 19.8808 30.7934 56.2811 0 100.08C15.84 41.52 59.16 8.16 129.96 0Z" sodipodi:nodetypes="ccc"/><path id="shape02" transform="matrix(1.49919442709583 1.09039676474418 -1.09039676474418 1.49919442709583 129.945800235112 92.9860023722664)" fill="#aea285" fill-rule="evenodd" stroke="#aea285" stroke-width="2.4" stroke-linecap="square" stroke-linejoin="bevel" d="M129.96 0C70.465 19.8808 30.7934 56.2811 0 100.08C15.84 41.52 59.16 8.16 129.96 0Z" sodipodi:nodetypes="ccc"/><rect id="shape1" transform="matrix(1.85379314779178 0 0 1.85379314779178 15.8288167913864 240.944223760451)" fill="#85acae" fill-rule="evenodd" stroke="#85acae" stroke-width="2.4" stroke-linecap="square" stroke-linejoin="bevel" width="169.440000781056" height="6.72"/>
</svg>
